<?xml version="1.0" encoding="UTF-8"?>
<svg id="Layer_1" xmlns="http://www.w3.org/2000/svg" version="1.1" viewBox="0 0 19.49 19.42">
  <!-- Generator: Adobe Illustrator 29.2.1, SVG Export Plug-In . SVG Version: 2.1.0 Build 116)  -->
  <defs>
    <style>
      .st0 {
        fill: #4c1e1d;
      }

      .st1 {
        fill: #fff;
      }
    </style>
  </defs>
  <g id="FeQWTa">
    <path class="st0" d="M11.79,0h-4.15v.32h-1.38v.37h-.69l-.05.35-.69.02v.32h-.32v.37h-.69v.32h-.37v.37h-.32v.32l-.32.02-.05.35h-.32v.32h-.37v.37l-.35.05-.02.64h-.32v.37h-.37v.69h-.32v1.01h-.37v1.43h-.32v4.46h.32v.37h.37v.69h.32v.69h.37v.69h.32v.37h.37v.32h.32v.37h.37l.02.32h.29v.37h.37v.37h.37v.32h.32v.37h.69v.32l.35.05.02.32h.98c.12.05.09.22.09.32h1.01v.37h1.38v.32h2.44v-.32h1.38c0-.13-.04-.29.08-.37h.98v-.32h.69l.02-.32.35-.05v-.32h.69v-.37h.32v-.32h.37v-.37h.37v-.32l.29-.05.03-.32h.37v-.37h.32v-.32h.37v-.37h.32l.02-.64.35-.05v-.69h.32v-.69h.37v-1.38h.37l-.05-3.83h-.32v-1.06h-.37v-1.01h-.32v-.69h-.37v-.37l-.35-.05.02-.55-.08-.08h-.29v-.38h-.37v-.32h-.32l-.05-.35-.32-.02v-.32h-.32v-.37h-.37v-.32h-.69v-.37h-.32v-.32h-1.06v-.37h-.69v-.37h-1.06V0h.02Z"/>
    <path class="st0" d="M11.79,0v.32h1.06v.37h.69v.37h1.06v.32h.32v.37h.69v.32h.37v.37h.32v.32l.32.02.05.35h.32v.32h.37v.37h.29l.08.09-.02.55.35.05v.37h.37v.69h.32v1.01h.37v1.06h.32l.05,3.83h-.37v1.38h-.37v.69h-.32v.69l-.35.05-.02.64h-.32v.37h-.37v.32h-.32v.37h-.37l-.03.32-.29.05v.32h-.38v.37h-.37v.32h-.32v.37h-.69v.32l-.35.05-.02.32h-.69v.32h-.98c-.12.09-.08.24-.08.37h-1.38v.32h-2.44v-.32h-1.38v-.37h-1.01c0-.1.04-.27-.09-.31h-.98l-.02-.33-.35-.05v-.32h-.69v-.37h-.32v-.32h-.37v-.37h-.37v-.37h-.29l-.02-.32h-.37v-.37h-.32v-.32h-.37v-.37h-.32v-.69h-.37v-.69h-.32v-.69h-.37v-.37H0v-4.46h.32v-1.43h.37v-1.01h.32v-.69h.37v-.37h.32l.02-.64.35-.05v-.37h.37v-.32h.32l.05-.35.32-.02v-.32h.32v-.37h.37v-.32h.69v-.37h.32v-.32l.69-.02.05-.35h.69v-.37h1.38V.01h4.15,0ZM11.48,1.38h-3.51c0,.11.05.32-.09.36l-1.29-.05v.37h-1.06l-.02.32-.32.05-.02.32h-.63l-.06.37h-.32v.32h-.37v.37h-.32v.69h-.37v.32h-.32v.37h-.37v1.06l-.32-.03-.02.67-.35.05v1.7h-.32v2.82h.32v1.06l.35.05.02.64h.32v.69h.37v.69h.32v.37h.37v.32h.32l.02.32.35.05v.32h.32l.05.35.64.02.02.32.34.06v.31h1.07v.37s.07-.05.08-.05h.93v.37h4.2l.05-.35,1.31.02.08-.07v-.27l.6-.03c.13-.04.08-.25.09-.36l.32.05v-.37h.69v-.37h.37v-.32l.32-.02.05-.35h.32v-.32l.35-.05.03-.64h.32v-.37h.37v-.69h.32v-1.06h.37v-1.38h.32v-2.44h-.32v-1.38h-.37v-.74c-.07.06-.32.07-.32-.03v-.98h-.37v-.37h-.32v-.32h-.37v-.37h-.32v-.32h-.37v-.37h-.37v-.32h-.32v-.37h-.69l-.05-.35-.69-.02v-.32h-.64l-.08-.36-.98-.02v-.31h-.03Z"/>
    <path class="st1" d="M18.07,8.34v2.44h-.32v1.38h-.37v1.06h-.32v.69h-.37v.37h-.32l-.03.64-.35.05v.32h-.32l-.05.35-.32.02v.32h-.37v.37h-.69v.37l-.32-.05c0,.11.05.32-.09.36l-.61.03v.27l-.08.07-1.31-.02-.05.35h-4.2v-.37h-.93s-.06.08-.08.05v-.37h-1.06v-.31l-.35-.06-.02-.32-.64-.02-.05-.35h-.32v-.32l-.35-.05-.02-.32h-.32v-.32h-.37v-.37h-.32v-.69h-.37v-.69h-.32l-.02-.64-.35-.05v-1.06h-.32v-2.82h.32v-1.7l.35-.05.02-.67.32.03v-1.06h.37v-.37h.32v-.32h.37v-.69h.32v-.37h.37v-.32h.32l.06-.36h.63l.02-.33.32-.05.02-.32h1.06v-.37l1.29.05c.13-.04.08-.25.09-.36h3.51v.31l.99.02.08.36h.64v.32l.69.02.05.35h.69v.37h.32v.32h.37v.37h.37v.32h.32v.37h.37v.32h.32v.37h.37v.98c0,.1.24.09.32.03v.74h.37v1.38h.35ZM17.66,9.72c.29-.43-.32-.3-.61-.31v.32h.61ZM16.68,5.9v-.32h-.32v.32h.32ZM16.68,10.1v-1.06h-.32v1.06h.32ZM16.31,13.55v-.32h-.32v-.37c-.26-.12-.54.2-.32.35.07.05.23.02.32.02v.32h.32ZM16.31,6.27v-.37h-.32v.37h.32ZM15.99,10.02v-.98h-.37v.98c0,.11.37.11.37,0ZM15.62,6.96v-1.06h-.32v1.06h.32ZM15.3,12.86v-.69h-.37v.69h-.32v-.69h-.37v.69h.37c0,.08-.03.36.03.37h.29v-.37h.37ZM15.3,10.02v-.98h-.37v.98c0,.11.37.11.37,0ZM14.93,6.96v-1.06h-.32v1.06h.32ZM14.61,5.21v-.69h-.37v.32h-.32l-.05.35-.32.02v.32c-.33-.04-.47.05-.32.37h-.37v.37h-.37v.32h-.32v.37h-.37v.32h-.32v.37h-.37v.32h-.32v.37h-.37v.37h-.37v.69h.37v-.37h.37v-.37h.32v-.32h.37v-.37h.32v-.32h.37v-.37h.31v-.31h.38v-.37h.32v-.32l.35-.05.02-.32h.37v-.37h.32v-.32h.37ZM13.87,13.23v-1.06h-.32v1.06h.32ZM13.2,16.32c.15.21.47-.06.35-.32h-.37v-.32h-.32v.32h.32c0,.09-.02.25.02.32ZM13.55,3.14l-.05-.35c-.28-.11-.42.09-.27.33l.32.02h0ZM13.18,3.45v-.32h-.32v.32h.32ZM12.49,15.62v-.64h-.32v.64h.32ZM12.49,4.84v-1.01h-.32v1.01h.32ZM12.17,16v-.32h-.37v.32h.37ZM11.8,15.62v-.64h-.32v.64h.32ZM11.1,3.83v-1.06h-.32v1.06h.32ZM10.78,16.31v-1.01h-.37v.98l.09.07.28-.04ZM10.41,3.83v-1.06c-.59-.15-.35.67-.32,1.03l.32.03ZM10.04,16l.04-.61-.07-.07h-.28v.68h-.32v-.69h-.37v.69l.32.02.05.29h.31c.01-.1,0-.21,0-.31h.32ZM10.04,17.38v-.69h-.32v.69h.32ZM10.04,2.44v-.69h-.32v.64l.32.05ZM9.72,3.83v-.37h-.32v.37h.32ZM9.72,3.14v-.37h-.32l-.03.32.35.05ZM9.35,9.38l.05-.35h-.37v-.32l-.32-.02-.05-.35h-.32v-.37h-.37v-.32h-.32v-.37h-.37v-.32l-.32-.02-.05-.32-.32-.02v-.32h-.32v.69h.32v.32l.32.02.05.35h.32v.32l.35.05.02.32h.32v.32h.37v.37h.32l.05.35h.64ZM9.4,10.42v-.31l-.32-.04-.05.35h.37ZM9.35,3.45v-.32h-.32v.32h.32ZM9.03,3.83c.03-.28,0-.45-.32-.35l-.05.35h.37ZM8.98,3.11c.14-.1.06-.44-.24-.34-.23.07-.04.54.24.34ZM8.97,10.73v-.31c-.21.03-.36.06-.25.31h.25ZM8.66,11.11v-.32h-.32v.32h.32ZM8.29,11.4l.05-.24h-.37v.27l.32-.02h0ZM7.97,11.8v-.32h-.32v.32h.32ZM7.97,15.3v-1.06h-.32v1.06h.32ZM7.65,4.84v-1.01h-.37v1.01h.37ZM7.6,12.17v-.32l-.3.05v.22l.3.05h0ZM7.28,12.49v-.32h-.32v.32h.32ZM7.28,15.3v-1.06h-.32v1.06h.32ZM6.96,4.84v-.32h-.37v-.37c.1,0,.29.03.35-.05.02-.31-.08-.29-.35-.27v.32h-.32v-.32l-.37.03v.29c.29-.04.49.04.32.35l-.32.02v.32h.37v-.32h.32c0,.1-.01.21,0,.31h.37ZM6.91,12.86v-.32h-.32v.32h.32ZM6.59,16v-.32h-.32v.32h.32ZM6.59,14.93v-.69h-.32c0,.23.01.46,0,.69h-.37v-.69l-.35.05-.02.64.32.02.05.35.32-.02s.05-.28.05-.35h.32ZM6.22,3.45v-.32h-.32v.32h.32ZM6.21,16.37v-.37h-.32v.37h.32ZM5.85,3.11c.14-.1.06-.44-.24-.34-.23.07-.04.54.24.34ZM5.52,12.49v-1.01h-.32v1.01h.32ZM4.83,6.96v-.37h-.32v-.32h.32v-.37h-.32l-.02.32c-.06.08-.26.05-.35.05v-.37h-.32v.37h.32v.32h-.32v.37h.32v-.37h.37v.37h.32ZM4.83,12.49v-1.01h-.32v1.01h.32ZM4.51,9.35l-.04-.29-.32-.02v.37h-.32v.32h.32l.02-.32h0l.34-.06h0ZM4.45,10.09c.13-.27.05-.44-.26-.34l-.05.35h.31ZM4.14,12.49v-1.01h-.32v1.01h.32ZM3.77,13.23v-.37h-.32v.37c-.28.01-.41-.06-.37.32h.37v-.32h.32ZM3.77,10.1v-.37h-.32v.37h.32ZM3.77,9.35v-.32h-.32v.32h.32ZM3.45,12.17v-.69h-.37v.69h-.32v-.69h-.37v.69h.37c0,.07-.03.31.03.32h.29v-.32h.37ZM3.45,6.27v-.37h-.37v-.32h-.32v.32h.32c.01.34-.05.4.37.37ZM3.08,10.1v-1.06h-.32v1.06h.32ZM2.39,9.73v-.32h-.69v.32h.69Z"/>
    <path class="st0" d="M14.61,4.52v.69h-.37v.32h-.32v.37h-.37l-.02.32-.35.05v.32h-.32v.37h-.37v.31h-.32v.37h-.37v.32h-.32v.37h-.37v.32h-.32v.37h-.37v.37h-.37v-.69h.37v-.37h.37v-.37h.32v-.32h.37v-.37h.32v-.32h.37v-.37h.32v-.32h.37v-.37h.37c-.15-.33-.01-.41.32-.37v-.32l.32-.02.05-.35h.32v-.32h.37Z"/>
    <polygon class="st0" points="6.59 6.27 6.59 6.59 6.91 6.61 6.95 6.94 7.28 6.96 7.28 7.28 7.65 7.28 7.65 7.65 7.97 7.65 7.97 7.97 8.34 7.97 8.34 8.34 8.66 8.34 8.71 8.69 9.03 8.72 9.03 9.03 9.4 9.03 9.35 9.38 8.71 9.38 8.66 9.03 8.34 9.03 8.34 8.66 7.97 8.66 7.97 8.34 7.65 8.34 7.63 8.02 7.28 7.97 7.28 7.65 6.96 7.65 6.91 7.3 6.59 7.28 6.59 6.96 6.27 6.96 6.27 6.27 6.59 6.27"/>
    <path class="st0" d="M15.99,9.03v.98c0,.11-.37.11-.37,0v-.98h.37Z"/>
    <path class="st0" d="M15.3,9.03v.98c0,.11-.37.11-.37,0v-.98h.37Z"/>
    <path class="st0" d="M6.27,14.93c0,.06,0,.32-.05.35l-.32.02-.05-.35-.32-.02.02-.64.35-.05v.69h.37c.01-.23,0-.46,0-.69h.32v.69h-.32Z"/>
    <path class="st0" d="M10.41,2.76v1.06l-.32-.03c-.03-.36-.26-1.18.32-1.03Z"/>
    <polygon class="st0" points="10.79 15.3 10.79 16.31 10.5 16.36 10.41 16.29 10.41 15.3 10.79 15.3"/>
    <rect class="st0" x="7.28" y="3.83" width=".37" height="1.01"/>
    <path class="st0" d="M6.59,4.52h-.32v.32h-.37v-.32l.32-.02c.16-.31-.03-.39-.32-.35v-.29l.37-.03v.32h.32v-.32c.27-.02.37-.04.35.27-.06.08-.25.05-.35.05v.37h.37v.32h-.37c-.01-.1,0-.21,0-.31h0Z"/>
    <path class="st0" d="M9.72,16c0,.1.01.21,0,.31h-.31l-.05-.29-.32-.02v-.69h.37v.69h.32v-.69h.29l.07.08-.04.61h-.33Z"/>
    <rect class="st0" x="7.65" y="14.24" width=".32" height="1.06"/>
    <rect class="st0" x="10.79" y="2.76" width=".32" height="1.06"/>
    <rect class="st0" x="13.55" y="12.17" width=".32" height="1.06"/>
    <rect class="st0" x="16.36" y="9.03" width=".32" height="1.06"/>
    <rect class="st0" x="2.76" y="9.03" width=".32" height="1.06"/>
    <rect class="st0" x="6.96" y="14.24" width=".32" height="1.06"/>
    <rect class="st0" x="15.3" y="5.9" width=".32" height="1.06"/>
    <rect class="st0" x="14.61" y="5.9" width=".32" height="1.06"/>
    <rect class="st0" x="4.51" y="11.48" width=".32" height="1.01"/>
    <rect class="st0" x="12.17" y="3.83" width=".32" height="1.01"/>
    <rect class="st0" x="5.21" y="11.48" width=".32" height="1.01"/>
    <rect class="st0" x="3.82" y="11.48" width=".32" height="1.01"/>
    <path class="st0" d="M14.61,12.86h-.37v-.69h.37v.69h.32v-.69h.37v.69h-.37v.37h-.29c-.06,0-.03-.29-.03-.37Z"/>
    <path class="st0" d="M2.76,12.17h-.37v-.69h.37v.69h.32v-.69h.37v.69h-.37v.32h-.29c-.06,0-.03-.25-.03-.32Z"/>
    <path class="st0" d="M4.14,6.27h-.32v-.37h.32v.37c.09,0,.29.03.35-.05l.02-.32h.32v.37h-.32v.32h.32v.37h-.32v-.37h-.37v.37h-.32v-.37h.32v-.32Z"/>
    <rect class="st0" x="9.72" y="16.69" width=".32" height=".69"/>
    <rect class="st0" x="1.7" y="9.41" width=".69" height=".32"/>
    <path class="st0" d="M17.06,9.73v-.32c.29.02.9-.12.61.31h-.61Z"/>
    <polygon class="st0" points="10.04 1.75 10.04 2.44 9.72 2.39 9.72 1.75 10.04 1.75"/>
    <rect class="st0" x="12.17" y="14.99" width=".32" height=".64"/>
    <rect class="st0" x="11.48" y="14.99" width=".32" height=".64"/>
    <path class="st0" d="M3.08,5.9h-.32v-.32h.32v.32h.37v.37c-.42.03-.36-.03-.37-.37Z"/>
    <path class="st0" d="M13.18,16h-.32v-.32h.32v.32h.37c.12.26-.2.54-.35.32-.05-.07-.02-.23-.02-.32Z"/>
    <path class="st0" d="M9.03,3.83h-.37l.05-.35c.32-.1.35.07.32.35Z"/>
    <path class="st0" d="M15.99,13.23c-.09,0-.25.02-.32-.02-.21-.15.06-.47.32-.35v.37h.32v.32h-.32v-.32Z"/>
    <polygon class="st0" points="9.4 10.1 9.4 10.42 9.03 10.42 9.08 10.07 9.4 10.1"/>
    <path class="st0" d="M13.55,3.14l-.32-.02c-.15-.24,0-.43.27-.33l.05.35h0Z"/>
    <polygon class="st0" points="4.51 9.35 4.17 9.4 4.14 9.73 3.82 9.73 3.82 9.41 4.14 9.41 4.14 9.03 4.46 9.06 4.51 9.35"/>
    <path class="st0" d="M5.61,2.77c.3-.1.37.25.24.34-.28.2-.46-.27-.24-.34Z"/>
    <path class="st0" d="M8.75,2.77c.3-.1.37.25.24.34-.28.2-.46-.27-.24-.34Z"/>
    <path class="st0" d="M4.45,10.09h-.31l.05-.34c.31-.1.4.08.26.34Z"/>
    <polygon class="st0" points="9.72 2.76 9.72 3.14 9.37 3.08 9.4 2.76 9.72 2.76"/>
    <rect class="st0" x="9.4" y="3.45" width=".32" height=".37"/>
    <rect class="st0" x="11.79" y="15.68" width=".37" height=".32"/>
    <rect class="st0" x="3.45" y="9.72" width=".32" height=".37"/>
    <path class="st0" d="M3.45,13.23v-.37h.32v.37h-.32v.32h-.37c-.04-.38.09-.31.37-.32Z"/>
    <rect class="st0" x="15.99" y="5.9" width=".32" height=".37"/>
    <rect class="st0" x="5.85" y="15.99" width=".37" height=".32" transform="translate(-10.13 22.17) rotate(-89.92)"/>
    <rect class="st0" x="3.45" y="9.03" width=".32" height=".32"/>
    <rect class="st0" x="7.65" y="11.48" width=".32" height=".32"/>
    <rect class="st0" x="6.59" y="12.54" width=".32" height=".32"/>
    <rect class="st0" x="16.36" y="5.58" width=".32" height=".32"/>
    <rect class="st0" x="8.34" y="10.79" width=".32" height=".32"/>
    <rect class="st0" x="6.27" y="15.68" width=".32" height=".32"/>
    <rect class="st0" x="6.96" y="12.17" width=".32" height=".32"/>
    <rect class="st0" x="12.86" y="3.14" width=".32" height=".32"/>
    <rect class="st0" x="9.03" y="3.14" width=".32" height=".32"/>
    <rect class="st0" x="5.9" y="3.14" width=".32" height=".32"/>
    <polygon class="st0" points="8.34 11.16 8.29 11.4 7.97 11.43 7.97 11.16 8.34 11.16"/>
    <polygon class="st0" points="7.6 11.85 7.6 12.17 7.3 12.12 7.3 11.9 7.6 11.85"/>
    <path class="st0" d="M8.98,10.42v.31h-.26c-.1-.26.04-.29.26-.31Z"/>
  </g>
  <rect class="st0" x="9.35" y="9.28" width=".8" height=".87"/>
</svg>